# xmcd
#
# Track frame offsets:
#	150
#	17862
#	33716
#	50442
#	63043
#	80432
#	96058
#	110938
#	127305
#	141727
#	162509
#	175122
#
# Disc length: 2546 seconds
#
# Revision: 1
# Processed by: cddbd v1.5.2PL0 Copyright (c) Steve Scherf et al.
# Submitted via: audiograbber 1.83.01
#
DISCID=b109f00c
DTITLE=Diamond Doug - Hiding Behind Your Heart
DYEAR=2001
DGENRE=
TTITLE0=Battle Hymn Of The Republic
TTITLE1=Hiding Behind Your Heart
TTITLE2=Tucson Arizona and The Queen Of Tennessee
TTITLE3=You Got Away With Love
TTITLE4=Dreamland
TTITLE5=Egg Dancin´ Time
TTITLE6=A Cup Of Love And Tea On The Side
TTITLE7=Momma´s Got Style
TTITLE8=She Took My Soul And Heart In Hand
TTITLE9=You´re The One
TTITLE10=That´s What You Do, You Do
TTITLE11=Ameica The Beautiful
EXTD=
EXTT0=
EXTT1=
EXTT2=
EXTT3=
EXTT4=
EXTT5=
EXTT6=
EXTT7=
EXTT8=
EXTT9=
EXTT10=
EXTT11=
PLAYORDER=
